<svg width="1626.2749999999999px" height="222.56000366210938px" xmlns="http://www.w3.org/2000/svg" viewBox="-563.1374999999999 -36.28000183105469 1626.2749999999999 222.56000366210938" style="background: rgba(0, 0, 0, 0);" preserveAspectRatio="xMidYMid"><defs><filter id="editing-hole" x="-100%" y="-100%" width="300%" height="300%"><feFlood flood-color="#000000" result="black"></feFlood><feMorphology operator="dilate" radius="2" in="SourceGraphic" result="erode"></feMorphology><feGaussianBlur in="erode" stdDeviation="4" result="blur"></feGaussianBlur><feOffset in="blur" dx="2" dy="2" result="offset"></feOffset><feComposite operator="atop" in="offset" in2="black" result="merge"></feComposite><feComposite operator="in" in="merge" in2="SourceGraphic" result="inner-shadow"></feComposite></filter></defs><g filter="url(#editing-hole)"><g transform="translate(-339.5379187017679, 116.08000612258911)"><path d="M43.39 0L36.50 0L12.20-62.83L12.20-62.83Q10.96-66.22 8.14-70.96L8.14-70.96L7.35-72.43L-0.11-73.56L0.45-79.67L12.77-79.67L29.38-80.23L29.83-74.69L20.91-72.43L20.91-72.43Q21.81-66.67 24.30-60.23L24.30-60.23L40.91-16.72L57.74-65.31L58.99-72.43L50.40-73.56L50.96-79.67L61.13-79.67L77.29-80.23L77.74-74.69L70.06-72.77L70.06-72.77Q67.01-67.69 64.86-61.59L64.86-61.59L43.39 0ZM100.91-45.77L100.91-45.77L100.91-15.03L100.91-15.03Q100.91-9.38 101.59-5.65L101.59-5.65L108.71-5.08L108.14 0.45L108.14 0.45Q101.93 0 93.90 0L93.90 0L84.07 0.45L83.62-4.52L90.17-5.65L90.17-5.65Q90.97-9.27 90.97-12.43L90.97-12.43L90.97-46.33L90.97-46.33Q90.97-49.49 90.17-53.90L90.17-53.90L83.73-54.92L84.19-60.23L84.19-60.23Q91.42-59.78 94.02-59.78L94.02-59.78L107.69-60.23L108.03-54.47L101.59-53.90L101.59-53.90Q100.91-50.17 100.91-45.77ZM118.31-4.52L124.86-5.65L125.66-12.43L125.66-46.33L125.66-46.33Q125.66-48.36 125.26-51.02L125.26-51.02L125.26-51.02Q124.86-53.68 124.86-53.90L124.86-53.90L118.20-54.92L118.65-60.23L118.65-60.23Q125.88-59.78 128.48-59.78L128.48-59.78L134.02-59.78L135.71-58.08L135.71-58.08Q142.72-47.01 143.96-45.20L143.96-45.20L165.88-16.05L165.88-45.77L165.88-45.77Q165.88-48.70 165.09-53.79L165.09-53.79L158.54-54.47L158.99-60.00L166.79-59.78L180.80-60.23L181.25-54.80L174.70-53.79L174.70-53.79Q173.57-48.93 173.57-45.20L173.57-45.20L173.57-21.81L173.45 0.34L166.00 0.34L133.23-43.62L133.23-15.03L133.23-15.03Q133.23-12.43 133.91-5.65L133.91-5.65L140.57-5.08L140.12 0.45L140.12 0.45Q135.94 0 128.03 0L128.03 0L118.65 0.45L118.31-4.52ZM217.75-61.13L217.75-61.13L217.75-61.13Q231.88-61.13 239.67-52.66L239.67-52.66L239.67-52.66Q247.47-44.18 247.47-29.89L247.47-29.89L247.47-29.89Q247.47-15.59 239.67-7.12L239.67-7.12L239.67-7.12Q231.88 1.36 217.75 1.36L217.75 1.36L217.75 1.36Q203.63 1.36 195.83-7.12L195.83-7.12L195.83-7.12Q188.03-15.59 188.03-29.89L188.03-29.89L188.03-29.89Q188.03-44.18 195.83-52.66L195.83-52.66L195.83-52.66Q203.63-61.13 217.75-61.13ZM217.75-55.26L217.75-55.26L217.75-55.26Q208.71-55.26 204.13-48.48L204.13-48.48L204.13-48.48Q199.56-41.70 199.56-29.89L199.56-29.89L199.56-29.89Q199.56-18.08 204.19-11.30L204.19-11.30L204.19-11.30Q208.82-4.52 217.75-4.52L217.75-4.52L217.75-4.52Q226.68-4.52 231.31-11.30L231.31-11.30L231.31-11.30Q235.94-18.08 235.94-29.89L235.94-29.89L235.94-29.89Q235.94-41.70 231.37-48.48L231.37-48.48L231.37-48.48Q226.79-55.26 217.75-55.26ZM265.89-59.78L265.89-59.78L282.95-60.57L282.95-60.57Q297.64-60.57 305.61-52.32L305.61-52.32L305.61-52.32Q313.57-44.07 313.57-30.06L313.57-30.06L313.57-30.06Q313.57-16.05 305.44-7.74L305.44-7.74L305.44-7.74Q297.30 0.57 282.95 0.57L282.95 0.57L282.95 0.57Q282.95 0.57 266.91 0L266.91 0L256.96 0.45L256.62-4.52L263.18-5.65L263.18-5.65Q263.97-10.40 263.97-12.43L263.97-12.43L263.97-46.33L263.97-46.33Q263.97-49.16 263.18-53.90L263.18-53.90L256.74-54.92L257.19-60.23L257.19-60.23Q262.50-59.89 265.89-59.78ZM282.61-54.80L282.61-54.80L282.61-54.80Q277.98-54.80 274.36-54.24L274.36-54.24L274.36-54.24Q273.80-46.33 273.80-45.77L273.80-45.77L273.80-15.03L273.80-15.03Q273.80-8.93 274.36-5.54L274.36-5.54L274.36-5.54Q277.98-5.31 282.61-5.31L282.61-5.31L282.61-5.31Q292.78-5.31 297.81-12.15L297.81-12.15L297.81-12.15Q302.84-18.98 302.84-29.89L302.84-29.89L302.84-29.89Q302.84-40.79 297.75-47.80L297.75-47.80L297.75-47.80Q292.67-54.80 282.61-54.80ZM383.75-73.34L383.75-73.34L368.95-73.34L368.95-73.34Q368.15-64.98 368.15-60.79L368.15-60.79L368.15-43.84L368.15-43.84Q372.00-43.62 373.01-43.62L373.01-43.62L381.26-43.62L388.04-44.63L389.06-52.09L394.26-51.53L394.26-51.53Q394.14-44.30 394.14-42.04L394.14-42.04L394.48-29.72L389.06-29.04L388.04-36.61L388.04-36.61Q381.26-37.29 379.00-37.29L379.00-37.29L373.01-37.29L373.01-37.29Q370.98-37.29 368.15-36.95L368.15-36.95L368.15-18.87L368.15-18.87Q368.15-12.43 368.95-6.89L368.95-6.89L380.25-6.10L379.45 0.57L379.45 0.57Q370.87 0 361.83 0L361.83 0L348.49 0.57L347.93-5.08L356.85-6.89L356.85-6.89Q357.87-13.56 357.87-15.48L357.87-15.48L357.87-64.18L357.87-64.18Q357.87-66.22 356.85-72.77L356.85-72.77L348.15-74.13L348.72-80.23L348.72-80.23Q359.57-79.67 361.83-79.67L361.83-79.67L387.14-79.67L400.02-80.80L402.17-78.76L402.96-63.39L396.40-62.83L396.40-62.83Q396.07-65.54 395.56-67.80L395.56-67.80L395.56-67.80Q395.05-70.06 392.90-72.77L392.90-72.77L392.90-72.77Q386.69-73.34 383.75-73.34ZM454.94-22.37L454.94-46.10L454.15-53.90L447.59-54.92L448.05-60.23L448.05-60.23Q454.71-59.78 457.20-59.78L457.20-59.78L469.97-60.23L470.31-54.47L463.75-53.90L463.75-53.90Q463.07-50.17 463.07-45.43L463.07-45.43L463.07-22.60L463.07-22.60Q463.07-11.53 456.97-5.14L456.97-5.14L456.97-5.14Q450.87 1.24 439.34 1.24L439.34 1.24L439.34 1.24Q427.82 1.24 421.77-5.14L421.77-5.14L421.77-5.14Q415.73-11.53 415.73-22.60L415.73-22.60L415.73-46.10L414.94-53.90L408.38-54.92L408.72-60.23L408.72-60.23Q415.95-59.78 418.55-59.78L418.55-59.78L432.79-60.23L433.24-54.47L426.58-53.90L426.58-53.90Q425.90-50.51 425.90-45.43L425.90-45.43L425.90-22.37L425.90-22.37Q425.90-14.92 429.63-10.34L429.63-10.34L429.63-10.34Q433.36-5.76 440.53-5.76L440.53-5.76L440.53-5.76Q447.71-5.76 451.32-10.23L451.32-10.23L451.32-10.23Q454.94-14.69 454.94-22.37L454.94-22.37ZM487.37-59.78L487.37-59.78L504.21-60.57L504.21-60.57Q513.47-60.57 518.78-55.99L518.78-55.99L518.78-55.99Q524.09-51.41 524.09-42.94L524.09-42.94L524.09-42.94Q524.09-37.18 520.82-33.00L520.82-33.00L520.82-33.00Q517.54-28.82 512.00-26.55L512.00-26.55L512.00-26.55Q517.99-15.14 525.22-5.65L525.22-5.65L530.87-5.08L530.31 0.45L530.31 0.45Q523.42 0 515.39 0L515.39 0L515.39 0Q511.89-7.80 510.76-9.83L510.76-9.83L502.62-24.75L501.72-24.75L501.72-24.75Q499.69-24.75 495.17-24.97L495.17-24.97L495.17-15.03L495.17-15.03Q495.17-13.11 495.84-5.65L495.84-5.65L503.08-5.08L502.51 0.45L502.51 0.45Q496.30 0 488.27 0L488.27 0L478.33 0.45L477.99-4.52L484.54-5.65L485.34-12.43L485.34-46.33L484.54-53.90L478.10-54.92L478.56-60.23L478.56-60.23Q483.98-59.89 487.37-59.78ZM500.03-55.37L500.03-55.37L500.03-55.37Q498.56-55.37 495.84-55.03L495.84-55.03L495.84-55.03Q495.17-50.29 495.17-45.77L495.17-45.77L495.17-30.17L495.17-30.17Q496.97-30.06 499.91-30.06L499.91-30.06L499.91-30.06Q506.58-30.06 510.20-33.28L510.20-33.28L510.20-33.28Q513.81-36.50 513.81-42.77L513.81-42.77L513.81-42.77Q513.81-49.04 510.25-52.21L510.25-52.21L510.25-52.21Q506.69-55.37 500.03-55.37ZM537.32-4.52L543.87-5.65L544.66-12.43L544.66-46.33L544.66-46.33Q544.66-48.36 544.26-51.02L544.26-51.02L544.26-51.02Q543.87-53.68 543.87-53.90L543.87-53.90L537.20-54.92L537.65-60.23L537.65-60.23Q544.89-59.78 547.49-59.78L547.49-59.78L553.02-59.78L554.72-58.08L554.72-58.08Q561.72-47.01 562.97-45.20L562.97-45.20L584.89-16.05L584.89-45.77L584.89-45.77Q584.89-48.70 584.10-53.79L584.10-53.79L577.54-54.47L578.00-60.00L585.79-59.78L599.80-60.23L600.26-54.80L593.70-53.79L593.70-53.79Q592.57-48.93 592.57-45.20L592.57-45.20L592.57-21.81L592.46 0.34L585.00 0.34L552.23-43.62L552.23-15.03L552.23-15.03Q552.23-12.43 552.91-5.65L552.91-5.65L559.58-5.08L559.12 0.45L559.12 0.45Q554.94 0 547.03 0L547.03 0L537.65 0.45L537.32-4.52ZM625.34-45.77L625.34-45.77L625.34-15.03L625.34-15.03Q625.34-9.38 626.02-5.65L626.02-5.65L633.14-5.08L632.57 0.45L632.57 0.45Q626.36 0 618.34 0L618.34 0L608.50 0.45L608.05-4.52L614.61-5.65L614.61-5.65Q615.40-9.27 615.40-12.43L615.40-12.43L615.40-46.33L615.40-46.33Q615.40-49.49 614.61-53.90L614.61-53.90L608.17-54.92L608.62-60.23L608.62-60.23Q615.85-59.78 618.45-59.78L618.45-59.78L632.12-60.23L632.46-54.47L626.02-53.90L626.02-53.90Q625.34-50.17 625.34-45.77ZM676.53-54.13L676.53-54.13L671.22-54.13L671.22-54.13Q670.54-49.38 670.54-45.77L670.54-45.77L670.54-15.03L670.54-15.03Q670.54-9.38 671.22-5.65L671.22-5.65L678.45-5.08L677.89 0.45L677.89 0.45Q671.56 0 663.65 0L663.65 0L653.71 0.45L653.25-4.52L659.81-5.65L659.81-5.65Q660.60-9.27 660.60-12.43L660.60-12.43L660.60-46.33L660.60-46.33Q660.60-49.04 659.81-54.13L659.81-54.13L654.72-54.13L654.72-54.13Q651.44-54.13 647.60-53.68L647.60-53.68L647.60-53.68Q646.25-51.87 645.96-50.40L645.96-50.40L645.96-50.40Q645.68-48.93 645.34-45.77L645.34-45.77L639.81-46.10L640.37-59.10L642.07-60.57L642.07-60.57Q650.31-59.78 652.12-59.78L652.12-59.78L679.02-59.78L689.07-60.57L690.77-59.10L691.33-46.10L685.91-45.77L685.91-45.77Q685.91-45.99 685.57-48.19L685.57-48.19L685.57-48.19Q685.23-50.40 685.06-51.13L685.06-51.13L685.06-51.13Q684.89-51.87 683.54-53.68L683.54-53.68L683.54-53.68Q679.92-54.13 676.53-54.13ZM742.64-22.37L742.64-46.10L741.85-53.90L735.29-54.92L735.74-60.23L735.74-60.23Q742.41-59.78 744.90-59.78L744.90-59.78L757.66-60.23L758.00-54.47L751.45-53.90L751.45-53.90Q750.77-50.17 750.77-45.43L750.77-45.43L750.77-22.60L750.77-22.60Q750.77-11.53 744.67-5.14L744.67-5.14L744.67-5.14Q738.57 1.24 727.04 1.24L727.04 1.24L727.04 1.24Q715.52 1.24 709.47-5.14L709.47-5.14L709.47-5.14Q703.42-11.53 703.42-22.60L703.42-22.60L703.42-46.10L702.63-53.90L696.08-54.92L696.42-60.23L696.42-60.23Q703.65-59.78 706.25-59.78L706.25-59.78L720.49-60.23L720.94-54.47L714.27-53.90L714.27-53.90Q713.60-50.51 713.60-45.43L713.60-45.43L713.60-22.37L713.60-22.37Q713.60-14.92 717.32-10.34L717.32-10.34L717.32-10.34Q721.05-5.76 728.23-5.76L728.23-5.76L728.23-5.76Q735.40-5.76 739.02-10.23L739.02-10.23L739.02-10.23Q742.64-14.69 742.64-22.37L742.64-22.37ZM775.07-59.78L775.07-59.78L791.90-60.57L791.90-60.57Q801.17-60.57 806.48-55.99L806.48-55.99L806.48-55.99Q811.79-51.41 811.79-42.94L811.79-42.94L811.79-42.94Q811.79-37.18 808.51-33.00L808.51-33.00L808.51-33.00Q805.24-28.82 799.70-26.55L799.70-26.55L799.70-26.55Q805.69-15.14 812.92-5.65L812.92-5.65L818.57-5.08L818.01 0.45L818.01 0.45Q811.11 0 803.09 0L803.09 0L803.09 0Q799.59-7.80 798.46-9.83L798.46-9.83L790.32-24.75L789.42-24.75L789.42-24.75Q787.38-24.75 782.86-24.97L782.86-24.97L782.86-15.03L782.86-15.03Q782.86-13.11 783.54-5.65L783.54-5.65L790.77-5.08L790.21 0.45L790.21 0.45Q783.99 0 775.97 0L775.97 0L766.03 0.45L765.69-4.52L772.24-5.65L773.03-12.43L773.03-46.33L772.24-53.90L765.80-54.92L766.25-60.23L766.25-60.23Q771.68-59.89 775.07-59.78ZM787.72-55.37L787.72-55.37L787.72-55.37Q786.25-55.37 783.54-55.03L783.54-55.03L783.54-55.03Q782.86-50.29 782.86-45.77L782.86-45.77L782.86-30.17L782.86-30.17Q784.67-30.06 787.61-30.06L787.61-30.06L787.61-30.06Q794.28-30.06 797.89-33.28L797.89-33.28L797.89-33.28Q801.51-36.50 801.51-42.77L801.51-42.77L801.51-42.77Q801.51-49.04 797.95-52.21L797.95-52.21L797.95-52.21Q794.39-55.37 787.72-55.37ZM853.72-54.13L842.75-54.13L842.19-45.77L842.19-33.67L842.19-33.67Q843.54-33.56 845.47-33.56L845.47-33.56L851.46-33.56L856.31-34.24L857.11-39.78L861.63-39.44L861.63-39.44Q861.51-34.01 861.51-32.32L861.51-32.32L861.74-22.49L857.11-21.92L856.31-27.46L856.31-27.46Q851.46-27.91 849.65-27.91L849.65-27.91L845.69-27.91L845.69-27.91Q843.43-27.91 842.19-27.69L842.19-27.69L842.19-15.03L842.19-15.03Q842.19-9.94 842.75-5.76L842.75-5.76L854.85-5.76L854.85-5.76Q858.01-5.76 862.19-6.55L862.19-6.55L862.19-6.55Q863.77-8.81 864.00-9.83L864.00-9.83L864.00-9.83Q865.13-14.58 865.24-15.26L865.24-15.26L870.55-14.80L869.20-1.24L867.50 0.34L867.50 0.34Q859.25 0 857.44 0L857.44 0L835.30 0L825.35 0.45L825.01-4.52L831.57-5.65L831.57-5.65Q832.36-9.27 832.36-12.43L832.36-12.43L832.36-46.33L832.36-46.33Q832.36-49.16 831.57-53.90L831.57-53.90L825.13-54.92L825.58-60.23L825.58-60.23Q833.04-59.78 835.30-59.78L835.30-59.78L856.31-59.78L866.37-60.57L868.07-59.10L868.63-46.90L863.09-46.44L863.09-46.44Q862.87-49.38 862.19-51.19L862.19-51.19L862.19-51.19Q862.19-51.87 860.72-53.79L860.72-53.79L860.72-53.79Q855.30-54.13 853.72-54.13L853.72-54.13ZM974.06-77.41L976.32-79.67L979.26-79.67L996.77-80.23L997.23-73.56L988.19-72.77L988.19-72.77Q987.85-70.74 987.85-64.30L987.85-64.30L991.69-14.92L991.69-14.92Q991.80-14.13 993.50-6.89L993.50-6.89L1002.65-6.10L1001.97 0.57L1001.97 0.57Q994.51 0 985.47 0L985.47 0L972.03 0.57L971.46-5.08L980.27-6.89L980.27-6.89Q980.84-15.37 980.84-18.31L980.84-18.31L977.79-65.99L953.04 0L948.97 0L924.23-65.99L921.51-18.31L921.51-18.31Q921.51-15.93 922.08-6.89L922.08-6.89L931.23-6.10L930.44 0.57L930.44 0.57Q924.68 0 915.87 0L915.87 0L903.77 0.57L903.21-5.08L912.02-6.89L912.02-6.89Q912.14-7.35 912.59-9.04L912.59-9.04L912.59-9.04Q913.72-13.67 913.94-14.92L913.94-14.92L916.88-64.30L916.88-64.30Q916.88-69.61 916.43-72.77L916.43-72.77L907.16-74.13L907.73-80.23L923.32-79.78L929.65-79.78L931.80-77.41L931.80-77.41Q936.66-62.49 937.67-59.78L937.67-59.78L952.70-19.78L968.07-60.68L974.06-77.41ZM1059.15-5.76L1064.46-4.97L1064.01 0.11L1064.01 0.11Q1058.47 0 1055.53 0L1055.53 0L1041.18 0.45L1040.84-4.52L1046.83-5.88L1045.14-13.22L1043.44-17.97L1025.02-17.97L1022.65-10.40L1021.86-5.88L1027.62-4.97L1027.17 0.11L1027.17 0.11Q1022.20 0 1019.03 0L1019.03 0L1007.06 0.45L1006.72-4.52L1011.69-5.65L1015.42-13.56L1031.58-59.78L1038.24-60.68L1056.21-11.98L1059.15-5.76ZM1041.52-23.50L1034.18-45.31L1026.83-23.16L1041.52-23.50ZM1079.94-59.78L1079.94-59.78L1096.78-60.57L1096.78-60.57Q1106.04-60.57 1111.36-55.99L1111.36-55.99L1111.36-55.99Q1116.67-51.41 1116.67-42.94L1116.67-42.94L1116.67-42.94Q1116.67-37.18 1113.39-33.00L1113.39-33.00L1113.39-33.00Q1110.11-28.82 1104.58-26.55L1104.58-26.55L1104.58-26.55Q1110.56-15.14 1117.80-5.65L1117.80-5.65L1123.45-5.08L1122.88 0.45L1122.88 0.45Q1115.99 0 1107.96 0L1107.96 0L1107.96 0Q1104.46-7.80 1103.33-9.83L1103.33-9.83L1095.20-24.75L1094.29-24.75L1094.29-24.75Q1092.26-24.75 1087.74-24.97L1087.74-24.97L1087.74-15.03L1087.74-15.03Q1087.74-13.11 1088.42-5.65L1088.42-5.65L1095.65-5.08L1095.08 0.45L1095.08 0.45Q1088.87 0 1080.85 0L1080.85 0L1070.90 0.45L1070.56-4.52L1077.12-5.65L1077.91-12.43L1077.91-46.33L1077.12-53.90L1070.67-54.92L1071.13-60.23L1071.13-60.23Q1076.55-59.89 1079.94-59.78ZM1092.60-55.37L1092.60-55.37L1092.60-55.37Q1091.13-55.37 1088.42-55.03L1088.42-55.03L1088.42-55.03Q1087.74-50.29 1087.74-45.77L1087.74-45.77L1087.74-30.17L1087.74-30.17Q1089.55-30.06 1092.48-30.06L1092.48-30.06L1092.48-30.06Q1099.15-30.06 1102.77-33.28L1102.77-33.28L1102.77-33.28Q1106.38-36.50 1106.38-42.77L1106.38-42.77L1106.38-42.77Q1106.38-49.04 1102.82-52.21L1102.82-52.21L1102.82-52.21Q1099.26-55.37 1092.60-55.37ZM1163.67-54.13L1163.67-54.13L1158.36-54.13L1158.36-54.13Q1157.68-49.38 1157.68-45.77L1157.68-45.77L1157.68-15.03L1157.68-15.03Q1157.68-9.38 1158.36-5.65L1158.36-5.65L1165.60-5.08L1165.03 0.45L1165.03 0.45Q1158.70 0 1150.79 0L1150.79 0L1140.85 0.45L1140.40-4.52L1146.95-5.65L1146.95-5.65Q1147.74-9.27 1147.74-12.43L1147.74-12.43L1147.74-46.33L1147.74-46.33Q1147.74-49.04 1146.95-54.13L1146.95-54.13L1141.87-54.13L1141.87-54.13Q1138.59-54.13 1134.75-53.68L1134.75-53.68L1134.75-53.68Q1133.39-51.87 1133.11-50.40L1133.11-50.40L1133.11-50.40Q1132.83-48.93 1132.49-45.77L1132.49-45.77L1126.95-46.10L1127.51-59.10L1129.21-60.57L1129.21-60.57Q1137.46-59.78 1139.27-59.78L1139.27-59.78L1166.16-59.78L1176.22-60.57L1177.91-59.10L1178.48-46.10L1173.05-45.77L1173.05-45.77Q1173.05-45.99 1172.71-48.19L1172.71-48.19L1172.71-48.19Q1172.38-50.40 1172.21-51.13L1172.21-51.13L1172.21-51.13Q1172.04-51.87 1170.68-53.68L1170.68-53.68L1170.68-53.68Q1167.06-54.13 1163.67-54.13Z" fill="#a65a32"></path></g></g><style>text {
  font-size: 64px;
  font-family: Arial Black;
  dominant-baseline: central;
  text-anchor: middle;
}</style></svg>